<svg width="32" height="32" viewBox="0 0 32 32" fill="none" xmlns="http://www.w3.org/2000/svg">
<path d="M16 28C14.3159 26.5635 12.7549 24.9887 11.3333 23.292C9.19996 20.744 6.66663 16.9493 6.66663 13.3333C6.66474 9.55673 8.93896 6.15119 12.4281 4.70587C15.9171 3.26055 19.9334 4.06033 22.6026 6.73201C24.3579 8.47948 25.3412 10.8565 25.3333 13.3333C25.3333 16.9493 22.8 20.744 20.6666 23.292C19.245 24.9887 17.6841 26.5635 16 28ZM16 6.66667C12.3199 6.67108 9.3377 9.65327 9.33329 13.3333C9.33329 14.888 10.036 17.58 13.38 21.5813C14.2041 22.5654 15.0786 23.5062 16 24.4C16.9214 23.5073 17.7963 22.5678 18.6213 21.5853C21.964 17.5787 22.6666 14.8867 22.6666 13.3333C22.6622 9.65327 19.68 6.67108 16 6.66667ZM16 17.3333C13.7908 17.3333 12 15.5425 12 13.3333C12 11.1242 13.7908 9.33334 16 9.33334C18.2091 9.33334 20 11.1242 20 13.3333C20 14.3942 19.5785 15.4116 18.8284 16.1618C18.0782 16.9119 17.0608 17.3333 16 17.3333Z" fill="#A5A5A5"/>
</svg>
